<svg xmlns="http://www.w3.org/2000/svg" fill="none" viewBox="0 0 32 32" id="Atm-Sign--Streamline-Emojitwo-Black" height="32" width="32">
  <desc>
    Atm Sign Streamline Emoji: https://streamlinehq.com
  </desc>
  <g>
    <path fill="#000000" d="m8.659 6.044 -1.885 6.7645h0.9125l0.6115 -2.197h1.672l0.6125 2.197h0.912l-1.8855 -6.765h-0.95Zm-0.125 3.723 0.6 -2.156 0.6 2.156h-1.2Zm2.2855 -2.8775h1.9195v5.919h0.881V6.8895h1.9195v-0.8455h-4.72v0.845Zm8.0905 4.8495 -1.5185 -5.695h-1.1785v6.7645h0.8425v-4.752l1.2685 4.752h1.172l1.2675 -4.752v4.752h0.843v-6.765h-1.178l-1.5185 5.695Z" stroke-width="0.5"></path>
    <path fill="#000000" d="M25.333 1H6.6665C4.089 1 2 3.096 2 5.6825V19.73c0 1.523 0.7295 2.8685 1.852 3.7225L2 31h20.295l-1.616 -6.5875h4.6545c2.578 0 4.667 -2.096 4.667 -4.6825V5.6825C30 3.096 27.911 1 25.333 1ZM4.0985 17.9995a1.165 1.165 0 0 1 1.163 -1.167h13.7725a1.1655 1.1655 0 0 1 1.163 1.167v0.4375c0 0.487 -0.298 0.9035 -0.7205 1.078l-0.407 -1.658H5.2255l-0.407 1.658a1.1665 1.1665 0 0 1 -0.72 -1.078v-0.4375Zm4.3705 2.0445 -0.228 1.8015h-1.302l-0.192 1.135h1.3505l-0.279 2.196c-0.1705 1.3505 0.8945 2.5235 2.3925 2.5235 1.498 0 2.687 -1.173 2.658 -2.5235l-0.1085 -5.132c-0.009 -0.396 0.3865 -0.708 0.882 -0.708s0.9235 0.312 0.9575 0.708l0.4335 5.132h0.0005c0.048 0.567 -0.4115 1.04 -1.028 1.04l0.078 1.4835c1.498 0 2.5625 -1.173 2.3915 -2.5235l-0.2785 -2.196h1.3505l-0.1925 -1.135h-1.3015l-0.228 -1.8015c-0.0655 -0.518 -0.4235 -0.961 -0.922 -1.2505h2.375l1.87 10.1065H5.146l1.869 -10.1065h2.3755c-0.498 0.2895 -0.856 0.7325 -0.9215 1.2505Zm1.2265 0c0.0335 -0.396 0.4615 -0.708 0.957 -0.708l0.0285 -0.5425h1.643c-0.4675 0.2895 -0.7785 0.7325 -0.789 1.2505l-0.1085 5.132c-0.0115 0.567 -0.521 1.04 -1.1365 1.04 -0.6165 0 -1.076 -0.473 -1.028 -1.04l0.4335 -5.132Zm11.408 10.0195H3.191l2.7655 -11.27h0.6185L4.4195 29.529H19.875l-2.1555 -10.7355h0.618l2.766 11.27Zm3.1465 -16.4a1.245 1.245 0 0 1 -1.244 1.2465H5.3735a1.2445 1.2445 0 0 1 -1.2425 -1.2465V5.1895a1.245 1.245 0 0 1 1.2425 -1.2475h17.6325a1.245 1.245 0 0 1 1.244 1.2475v8.474Zm5.283 5.334h-2.217a0.9355 0.9355 0 0 1 -0.9335 -0.9365v-1.405a0.935 0.935 0 0 1 0.9335 -0.9365h2.217v3.278Zm0 -4.8875h-2.217a0.9345 0.9345 0 0 1 -0.9335 -0.936v-1.405a0.935 0.935 0 0 1 0.9335 -0.9365h2.217v3.2775Zm0 -4.8865h-2.217a0.935 0.935 0 0 1 -0.9335 -0.9365v-1.405c0 -0.5165 0.418 -0.9365 0.9335 -0.9365h2.217v3.278Z" stroke-width="0.5"></path>
  </g>
</svg>