<?xml version="1.0" encoding="iso-8859-1"?>
<!-- Uploaded to: SVG Repo, www.svgrepo.com, Generator: SVG Repo Mixer Tools -->
<svg fill="#000000" height="800px" width="800px" version="1.1" id="Layer_1" xmlns="http://www.w3.org/2000/svg" xmlns:xlink="http://www.w3.org/1999/xlink" 
	 viewBox="0 0 491.52 491.52" xml:space="preserve">
<g>
	<g>
		<path d="M471.04,0h-81.92c-11.325,0-20.48,9.175-20.48,20.48v20.48H122.88V20.48C122.88,9.175,113.725,0,102.4,0H20.48
			C9.155,0,0,9.175,0,20.48v81.92c0,11.305,9.155,20.48,20.48,20.48h20.48v348.16c0,11.305,9.155,20.48,20.48,20.48
			s20.48-9.175,20.48-20.48v-102.4h20.48v40.96c0,11.305,9.155,20.48,20.48,20.48h81.92c11.325,0,20.48-9.175,20.48-20.48V184.32
			c0-6.308-2.888-12.247-7.885-16.138c-4.977-3.891-11.448-5.284-17.551-3.727l-81.92,20.48C108.81,187.208,102.4,195.4,102.4,204.8
			v40.96H81.92V122.88h20.48c11.325,0,20.48-9.175,20.48-20.48V81.92h245.76v20.48c0,11.305,9.155,20.48,20.48,20.48h20.48v122.88
			h-20.48V204.8c0-9.4-6.39-17.592-15.524-19.866l-81.92-20.48c-6.062-1.516-12.554-0.143-17.551,3.727
			c-4.977,3.891-7.885,9.83-7.885,16.138V409.6c0,11.305,9.155,20.48,20.48,20.48h81.92c11.325,0,20.48-9.175,20.48-20.48v-40.96
			h20.48v102.4c0,11.305,9.155,20.48,20.48,20.48s20.48-9.175,20.48-20.48V122.88h20.48c11.325,0,20.48-9.175,20.48-20.48V20.48
			C491.52,9.175,482.365,0,471.04,0z"/>
	</g>
</g>
</svg>