<?xml version="1.0" encoding="iso-8859-1"?>
<!-- Uploaded to: SVG Repo, www.svgrepo.com, Generator: SVG Repo Mixer Tools -->
<svg fill="#000000" height="800px" width="800px" version="1.1" id="Layer_1" xmlns="http://www.w3.org/2000/svg" xmlns:xlink="http://www.w3.org/1999/xlink" 
	 viewBox="0 0 491.52 491.52" xml:space="preserve">
<g>
	<g>
		<path d="M460.798,40.96h-102.4c-11.305,0-20.48,9.155-20.48,20.48v81.92h-20.48V40.96h20.48c11.305,0,20.48-9.155,20.48-20.48
			S349.223,0,337.918,0h-40.96c-0.123,0-0.246,0.061-0.369,0.061c-1.659,0.041-3.236,0.553-4.833,0.983
			c-0.983,0.266-2.048,0.287-2.97,0.696c-0.922,0.389-1.679,1.167-2.54,1.72c-1.393,0.881-2.847,1.659-3.994,2.847
			c-0.082,0.102-0.205,0.123-0.307,0.225l-266.24,286.72c-7.68,8.294-7.209,21.258,1.065,28.938
			c3.953,3.666,8.95,5.489,13.947,5.489c5.489,0,10.977-2.212,15.012-6.554l5.468-5.878v32.911c-11.305,0-20.48,9.155-20.48,20.48
			v102.4c0,11.325,9.175,20.48,20.48,20.48h409.6c11.305,0,20.48-9.155,20.48-20.48V61.44
			C481.278,50.115,472.103,40.96,460.798,40.96z M153.598,245.76c-11.305,0-20.48,9.155-20.48,20.48v81.92h-40.96v-77.025
			l61.44-66.171V245.76z M276.478,143.36h-20.48c-11.305,0-20.48,9.155-20.48,20.48v81.92h-40.96v-81.92
			c0-0.881-0.389-1.618-0.492-2.458l82.412-88.74V143.36z"/>
	</g>
</g>
</svg>